<svg width="628" height="628" viewBox="0 0 628 628" fill="none" xmlns="http://www.w3.org/2000/svg">
<mask id="path-1-inside-1" fill="white">
<path d="M444.944 131.028C420.916 113.832 393.736 101.538 364.956 94.846C336.176 88.1543 306.36 87.1967 277.211 92.028C248.061 96.8592 220.148 107.385 195.066 123.003C169.984 138.622 148.224 159.028 131.028 183.056C113.832 207.084 101.538 234.264 94.8459 263.044C88.1542 291.823 87.1966 321.639 92.0279 350.789C96.8591 379.939 107.384 407.852 123.003 432.934C138.622 458.016 159.028 479.776 183.056 496.972L314 314L444.944 131.028Z"/>
</mask>
<path d="M444.944 131.028C420.916 113.832 393.736 101.538 364.956 94.846C336.176 88.1543 306.36 87.1967 277.211 92.028C248.061 96.8592 220.148 107.385 195.066 123.003C169.984 138.622 148.224 159.028 131.028 183.056C113.832 207.084 101.538 234.264 94.8459 263.044C88.1542 291.823 87.1966 321.639 92.0279 350.789C96.8591 379.939 107.384 407.852 123.003 432.934C138.622 458.016 159.028 479.776 183.056 496.972L314 314L444.944 131.028Z" fill="#FF3E4D" stroke="white" stroke-width="20" mask="url(#path-1-inside-1)"/>
<mask id="path-2-inside-2" fill="white">
<path d="M183.056 496.972C207.084 514.168 234.264 526.462 263.044 533.154C291.823 539.846 321.639 540.803 350.789 535.972C379.939 531.141 407.852 520.615 432.934 504.997C458.016 489.378 479.776 468.972 496.972 444.944C514.167 420.916 526.462 393.736 533.154 364.956C539.845 336.177 540.803 306.361 535.972 277.211C531.141 248.061 520.615 220.148 504.997 195.066C489.378 169.984 468.972 148.224 444.944 131.028L314 314L183.056 496.972Z"/>
</mask>
<path d="M183.056 496.972C207.084 514.168 234.264 526.462 263.044 533.154C291.823 539.846 321.639 540.803 350.789 535.972C379.939 531.141 407.852 520.615 432.934 504.997C458.016 489.378 479.776 468.972 496.972 444.944C514.167 420.916 526.462 393.736 533.154 364.956C539.845 336.177 540.803 306.361 535.972 277.211C531.141 248.061 520.615 220.148 504.997 195.066C489.378 169.984 468.972 148.224 444.944 131.028L314 314L183.056 496.972Z" fill="#2C3335" stroke="white" stroke-width="20" mask="url(#path-2-inside-2)"/>
<path d="M144.768 234.104V244.004H157.8V246.308H144.768V257H142.104V231.8H159.384V234.104H144.768ZM166.442 241.772C167.042 240.5 167.93 239.54 169.106 238.892C170.306 238.244 171.782 237.92 173.534 237.92V240.404L172.922 240.368C170.93 240.368 169.37 240.98 168.242 242.204C167.114 243.428 166.55 245.144 166.55 247.352V257H163.994V238.064H166.442V241.772ZM185.726 257.18C183.902 257.18 182.258 256.772 180.794 255.956C179.33 255.116 178.178 253.964 177.338 252.5C176.498 251.036 176.078 249.38 176.078 247.532C176.078 245.684 176.498 244.028 177.338 242.564C178.178 241.1 179.33 239.96 180.794 239.144C182.258 238.328 183.902 237.92 185.726 237.92C187.55 237.92 189.194 238.328 190.658 239.144C192.122 239.96 193.262 241.1 194.078 242.564C194.918 244.028 195.338 245.684 195.338 247.532C195.338 249.38 194.918 251.036 194.078 252.5C193.262 253.964 192.122 255.116 190.658 255.956C189.194 256.772 187.55 257.18 185.726 257.18ZM185.726 254.912C187.07 254.912 188.27 254.612 189.326 254.012C190.406 253.388 191.246 252.512 191.846 251.384C192.446 250.256 192.746 248.972 192.746 247.532C192.746 246.092 192.446 244.808 191.846 243.68C191.246 242.552 190.406 241.688 189.326 241.088C188.27 240.464 187.07 240.152 185.726 240.152C184.382 240.152 183.17 240.464 182.09 241.088C181.034 241.688 180.194 242.552 179.57 243.68C178.97 244.808 178.67 246.092 178.67 247.532C178.67 248.972 178.97 250.256 179.57 251.384C180.194 252.512 181.034 253.388 182.09 254.012C183.17 254.612 184.382 254.912 185.726 254.912ZM210.204 237.92C212.58 237.92 214.464 238.616 215.856 240.008C217.272 241.376 217.98 243.38 217.98 246.02V257H215.424V246.272C215.424 244.304 214.932 242.804 213.948 241.772C212.964 240.74 211.56 240.224 209.736 240.224C207.696 240.224 206.076 240.836 204.876 242.06C203.7 243.26 203.112 244.928 203.112 247.064V257H200.556V238.064H203.004V241.556C203.7 240.404 204.66 239.516 205.884 238.892C207.132 238.244 208.572 237.92 210.204 237.92ZM234.891 255.848C234.411 256.28 233.811 256.616 233.091 256.856C232.395 257.072 231.663 257.18 230.895 257.18C229.119 257.18 227.751 256.7 226.791 255.74C225.831 254.78 225.351 253.424 225.351 251.672V240.224H221.967V238.064H225.351V233.924H227.907V238.064H233.667V240.224H227.907V251.528C227.907 252.656 228.183 253.52 228.735 254.12C229.311 254.696 230.127 254.984 231.183 254.984C231.711 254.984 232.215 254.9 232.695 254.732C233.199 254.564 233.631 254.324 233.991 254.012L234.891 255.848ZM257.904 254.696V257H240.084V231.8H257.364V234.104H242.748V243.068H255.78V245.336H242.748V254.696H257.904ZM273.275 237.92C275.651 237.92 277.535 238.616 278.927 240.008C280.343 241.376 281.051 243.38 281.051 246.02V257H278.495V246.272C278.495 244.304 278.003 242.804 277.019 241.772C276.035 240.74 274.631 240.224 272.807 240.224C270.767 240.224 269.147 240.836 267.947 242.06C266.771 243.26 266.183 244.928 266.183 247.064V257H263.627V238.064H266.075V241.556C266.771 240.404 267.731 239.516 268.955 238.892C270.203 238.244 271.643 237.92 273.275 237.92ZM305.34 230.288V257H302.892V253.256C302.124 254.528 301.104 255.5 299.832 256.172C298.584 256.844 297.168 257.18 295.584 257.18C293.808 257.18 292.2 256.772 290.76 255.956C289.32 255.14 288.192 254 287.376 252.536C286.56 251.072 286.152 249.404 286.152 247.532C286.152 245.66 286.56 243.992 287.376 242.528C288.192 241.064 289.32 239.936 290.76 239.144C292.2 238.328 293.808 237.92 295.584 237.92C297.12 237.92 298.5 238.244 299.724 238.892C300.972 239.516 301.992 240.44 302.784 241.664V230.288H305.34ZM295.8 254.912C297.12 254.912 298.308 254.612 299.364 254.012C300.444 253.388 301.284 252.512 301.884 251.384C302.508 250.256 302.82 248.972 302.82 247.532C302.82 246.092 302.508 244.808 301.884 243.68C301.284 242.552 300.444 241.688 299.364 241.088C298.308 240.464 297.12 240.152 295.8 240.152C294.456 240.152 293.244 240.464 292.164 241.088C291.108 241.688 290.268 242.552 289.644 243.68C289.044 244.808 288.744 246.092 288.744 247.532C288.744 248.972 289.044 250.256 289.644 251.384C290.268 252.512 291.108 253.388 292.164 254.012C293.244 254.612 294.456 254.912 295.8 254.912Z" fill="#2C3335"/>
<path d="M345.98 369.004C347.636 369.364 348.908 370.084 349.796 371.164C350.708 372.22 351.164 373.588 351.164 375.268C351.164 377.428 350.36 379.096 348.752 380.272C347.168 381.424 344.816 382 341.696 382H330.104V356.8H340.976C343.784 356.8 345.956 357.364 347.492 358.492C349.052 359.62 349.832 361.216 349.832 363.28C349.832 364.672 349.484 365.86 348.788 366.844C348.116 367.804 347.18 368.524 345.98 369.004ZM332.768 358.996V368.14H340.796C342.836 368.14 344.408 367.756 345.512 366.988C346.616 366.196 347.168 365.056 347.168 363.568C347.168 362.08 346.616 360.952 345.512 360.184C344.408 359.392 342.836 358.996 340.796 358.996H332.768ZM341.66 379.804C343.916 379.804 345.62 379.42 346.772 378.652C347.924 377.884 348.5 376.684 348.5 375.052C348.5 371.908 346.22 370.336 341.66 370.336H332.768V379.804H341.66ZM363.329 362.92C365.801 362.92 367.697 363.544 369.017 364.792C370.337 366.016 370.997 367.84 370.997 370.264V382H368.549V379.048C367.973 380.032 367.121 380.8 365.993 381.352C364.889 381.904 363.569 382.18 362.033 382.18C359.921 382.18 358.241 381.676 356.993 380.668C355.745 379.66 355.121 378.328 355.121 376.672C355.121 375.064 355.697 373.768 356.849 372.784C358.025 371.8 359.885 371.308 362.429 371.308H368.441V370.156C368.441 368.524 367.985 367.288 367.073 366.448C366.161 365.584 364.829 365.152 363.077 365.152C361.877 365.152 360.725 365.356 359.621 365.764C358.517 366.148 357.569 366.688 356.777 367.384L355.625 365.476C356.585 364.66 357.737 364.036 359.081 363.604C360.425 363.148 361.841 362.92 363.329 362.92ZM362.429 380.164C363.869 380.164 365.105 379.84 366.137 379.192C367.169 378.52 367.937 377.56 368.441 376.312V373.216H362.501C359.261 373.216 357.641 374.344 357.641 376.6C357.641 377.704 358.061 378.58 358.901 379.228C359.741 379.852 360.917 380.164 362.429 380.164ZM385.857 382.18C383.985 382.18 382.305 381.772 380.817 380.956C379.353 380.14 378.201 379 377.361 377.536C376.521 376.048 376.101 374.38 376.101 372.532C376.101 370.684 376.521 369.028 377.361 367.564C378.201 366.1 379.353 364.96 380.817 364.144C382.305 363.328 383.985 362.92 385.857 362.92C387.489 362.92 388.941 363.244 390.213 363.892C391.509 364.516 392.529 365.44 393.273 366.664L391.365 367.96C390.741 367.024 389.949 366.328 388.989 365.872C388.029 365.392 386.985 365.152 385.857 365.152C384.489 365.152 383.253 365.464 382.149 366.088C381.069 366.688 380.217 367.552 379.593 368.68C378.993 369.808 378.693 371.092 378.693 372.532C378.693 373.996 378.993 375.292 379.593 376.42C380.217 377.524 381.069 378.388 382.149 379.012C383.253 379.612 384.489 379.912 385.857 379.912C386.985 379.912 388.029 379.684 388.989 379.228C389.949 378.772 390.741 378.076 391.365 377.14L393.273 378.436C392.529 379.66 391.509 380.596 390.213 381.244C388.917 381.868 387.465 382.18 385.857 382.18ZM405.033 372.496L400.569 376.6V382H398.013V355.288H400.569V373.396L411.873 363.064H415.041L406.941 370.804L415.797 382H412.665L405.033 372.496ZM437.994 379.696V382H420.174V356.8H437.454V359.104H422.838V368.068H435.87V370.336H422.838V379.696H437.994ZM453.364 362.92C455.74 362.92 457.624 363.616 459.016 365.008C460.432 366.376 461.14 368.38 461.14 371.02V382H458.584V371.272C458.584 369.304 458.092 367.804 457.108 366.772C456.124 365.74 454.72 365.224 452.896 365.224C450.856 365.224 449.236 365.836 448.036 367.06C446.86 368.26 446.272 369.928 446.272 372.064V382H443.716V363.064H446.164V366.556C446.86 365.404 447.82 364.516 449.044 363.892C450.292 363.244 451.732 362.92 453.364 362.92ZM485.43 355.288V382H482.982V378.256C482.214 379.528 481.194 380.5 479.922 381.172C478.674 381.844 477.258 382.18 475.674 382.18C473.898 382.18 472.29 381.772 470.85 380.956C469.41 380.14 468.282 379 467.466 377.536C466.65 376.072 466.242 374.404 466.242 372.532C466.242 370.66 466.65 368.992 467.466 367.528C468.282 366.064 469.41 364.936 470.85 364.144C472.29 363.328 473.898 362.92 475.674 362.92C477.21 362.92 478.59 363.244 479.814 363.892C481.062 364.516 482.082 365.44 482.874 366.664V355.288H485.43ZM475.89 379.912C477.21 379.912 478.398 379.612 479.454 379.012C480.534 378.388 481.374 377.512 481.974 376.384C482.598 375.256 482.91 373.972 482.91 372.532C482.91 371.092 482.598 369.808 481.974 368.68C481.374 367.552 480.534 366.688 479.454 366.088C478.398 365.464 477.21 365.152 475.89 365.152C474.546 365.152 473.334 365.464 472.254 366.088C471.198 366.688 470.358 367.552 469.734 368.68C469.134 369.808 468.834 371.092 468.834 372.532C468.834 373.972 469.134 375.256 469.734 376.384C470.358 377.512 471.198 378.388 472.254 379.012C473.334 379.612 474.546 379.912 475.89 379.912Z" fill="#FF3E4D"/>
</svg>
